ffmpeg version 3.4.8-0ubuntu0.2 Copyright (c) 2000-2020 the FFmpeg developers
  built with gcc 7 (Ubuntu 7.5.0-3ubuntu1~18.04)
  configuration: --prefix=/usr --extra-version=0ubuntu0.2 --toolchain=hardened --libdir=/usr/lib/x86_64-linux-gnu --incdir=/usr/include/x86_64-linux-gnu --enable-gpl --disable-stripping --enable-avresample --enable-avisynth --enable-gnutls --enable-ladspa --enable-libass --enable-libbluray --enable-libbs2b --enable-libcaca --enable-libcdio --enable-libflite --enable-libfontconfig --enable-libfreetype --enable-libfribidi --enable-libgme --enable-libgsm --enable-libmp3lame --enable-libmysofa --enable-libopenjpeg --enable-libopenmpt --enable-libopus --enable-libpulse --enable-librubberband --enable-librsvg --enable-libshine --enable-libsnappy --enable-libsoxr --enable-libspeex --enable-libssh --enable-libtheora --enable-libtwolame --enable-libvorbis --enable-libvpx --enable-libwavpack --enable-libwebp --enable-libx265 --enable-libxml2 --enable-libxvid --enable-libzmq --enable-libzvbi --enable-omx --enable-openal --enable-opengl --enable-sdl2 --enable-libdc1394 --enable-libdrm --enable-libiec61883 --enable-chromaprint --enable-frei0r --enable-libopencv --enable-libx264 --enable-shared
  libavutil      55. 78.100 / 55. 78.100
  libavcodec     57.107.100 / 57.107.100
  libavformat    57. 83.100 / 57. 83.100
  libavdevice    57. 10.100 / 57. 10.100
  libavfilter     6.107.100 /  6.107.100
  libavresample   3.  7.  0 /  3.  7.  0
  libswscale      4.  8.100 /  4.  8.100
  libswresample   2.  9.100 /  2.  9.100
  libpostproc    54.  7.100 / 54.  7.100
[rawvideo @ 0x563942338a20] Estimating duration from bitrate, this may be inaccurate
Input #0, rawvideo, from '../../SVC-Encoder-20220109T061506Z-001/SVC-Encoder/Dataset/RollerCoaster/6f_2x2/tile_yuv/f0_t0_480x480.yuv':
  Duration: 00:00:10.00, start: 0.000000, bitrate: 82944 kb/s
    Stream #0:0: Video: rawvideo (I420 / 0x30323449), yuv420p, 480x480, 82944 kb/s, 30 tbr, 30 tbn, 30 tbc
Stream mapping:
  Stream #0:0 -> #0:0 (rawvideo (native) -> h264 (libx264))
Press [q] to stop, [?] for help
[libx264 @ 0x563942345c60] using cpu capabilities: MMX2 SSE2Fast LZCNT SSSE3 SSE4.2 AVX
[libx264 @ 0x563942345c60] profile High, level 3.0
Output #0, rawvideo, to 'RollerCoaster_f0_t0_480x480_x264_QP_24.h264':
  Metadata:
    encoder         : Lavf57.83.100
    Stream #0:0: Video: h264 (libx264), yuv420p, 480x480, q=-1--1, 30 fps, 30 tbn, 30 tbc
    Metadata:
      encoder         : Lavc57.107.100 libx264
    Side data:
      cpb: bitrate max/min/avg: 0/0/0 buffer size: 0 vbv_delay: -1
frame=  300 fps=0.0 q=30.0 LPSNR=Y:inf U:inf V:inf *:inf size=      17kB time=00:00:09.93 bitrate=  13.8kbits/s speed=27.6x    
video:17kB audio:0kB subtitle:0kB other streams:0kB global headers:0kB muxing overhead: 0.000000%
[libx264 @ 0x563942345c60] frame I:2     Avg QP:23.85  size:  1304  PSNR Mean Y:54.55 U:54.79 V:56.08 Avg:54.81 Global:54.81
[libx264 @ 0x563942345c60] frame P:76    Avg QP:23.77  size:   135  PSNR Mean Y:54.26 U:54.68 V:55.69 Avg:54.53 Global:54.51
[libx264 @ 0x563942345c60] frame B:222   Avg QP:29.44  size:    19  PSNR Mean Y:54.27 U:54.70 V:55.71 Avg:54.55 Global:54.53
[libx264 @ 0x563942345c60] consecutive B-frames:  1.0%  0.7%  1.0% 97.3%
[libx264 @ 0x563942345c60] mb I  I16..4: 92.4%  7.6%  0.0%
[libx264 @ 0x563942345c60] mb P  I16..4:  2.9%  0.6%  0.0%  P16..4:  3.1%  0.3%  0.0%  0.0%  0.0%    skip:93.1%
[libx264 @ 0x563942345c60] mb B  I16..4:  0.0%  0.0%  0.0%  B16..8:  0.2%  0.0%  0.0%  direct: 0.0%  skip:99.8%  L0: 6.5% L1:93.5% BI: 0.0%
[libx264 @ 0x563942345c60] 8x8 transform intra:12.9% inter:100.0%
[libx264 @ 0x563942345c60] coded y,uvDC,uvAC intra: 0.5% 12.5% 0.0% inter: 0.0% 0.2% 0.0%
[libx264 @ 0x563942345c60] i16 v,h,dc,p: 47% 32% 12%  9%
[libx264 @ 0x563942345c60] i8 v,h,dc,ddl,ddr,vr,hd,vl,hu:  9% 12% 74%  0%  1%  1%  3%  0%  0%
[libx264 @ 0x563942345c60] i8c dc,h,v,p: 76% 11% 13%  0%
[libx264 @ 0x563942345c60] Weighted P-Frames: Y:0.0% UV:0.0%
[libx264 @ 0x563942345c60] ref P L0: 86.5%  4.8%  7.4%  1.3%
[libx264 @ 0x563942345c60] ref B L0: 88.0%  8.0%  4.0%
[libx264 @ 0x563942345c60] ref B L1: 95.0%  5.0%
[libx264 @ 0x563942345c60] PSNR Mean Y:54.272 U:54.693 V:55.703 Avg:54.546 Global:54.529 kb/s:13.68
